#tb 0: 628/3675
#media_type 0: video
#codec_id 0: cdxl
#dimensions 0: 176x128
#sar 0: 0/1
#tb 1: 1/11025
#media_type 1: audio
#codec_id 1: pcm_s8_planar
#sample_rate 1: 11025
#channel_layout 1: 4
#channel_layout_name 1: mono
0,          0,          0,        1,    22688, 0xc954a244
1,          0,          0,     1884,     1884, 0x06925e3e
0,          1,          1,        1,    22688, 0x3ee4a304
1,       1884,       1884,     1884,     1884, 0x1957ab65
0,          2,          2,        1,    22688, 0x9777a305
1,       3768,       3768,     1884,     1884, 0x7fcd6e47
0,          3,          3,        1,    22688, 0xf00aa306
1,       5652,       5652,     1884,     1884, 0xc974878e
0,          4,          4,        1,    22688, 0x48aca307
1,       7536,       7536,     1884,     1884, 0xecb5c4c8
0,          5,          5,        1,    22688, 0xa13fa308
1,       9420,       9420,     1884,     1884, 0x87adce5f
0,          6,          6,        1,    22688, 0xf9d2a309
1,      11304,      11304,     1884,     1884, 0x3cf097e4
0,          7,          7,        1,    22688, 0x5274a30a
1,      13188,      13188,     1884,     1884, 0xcc218105
0,          8,          8,        1,    22688, 0xab07a30b
1,      15072,      15072,     1884,     1884, 0xf685762f
0,          9,          9,        1,    17896, 0x1a696b6e
